<svg xmlns="http://www.w3.org/2000/svg" width="200" height="80" viewBox="0 0 200 80">
  <g id="Group_16" data-name="Group 16" transform="translate(-677 -124)">
    <g id="Rectangle_109" data-name="Rectangle 109" transform="translate(677 124)" fill="#131313" stroke="#f8f8f8" stroke-linejoin="round" stroke-width="1">
      <rect width="200" height="80" rx="40" stroke="none"/>
      <rect x="0.5" y="0.5" width="199" height="79" rx="39.5" fill="none"/>
    </g>
    <rect id="Rectangle_110" data-name="Rectangle 110" width="59" height="59" rx="29.5" transform="translate(689 134)" fill="#f06666"/>
    <path id="Icon_metro-sun4" data-name="Icon metro-sun4" d="M30.463,16.359A13.462,13.462,0,1,0,43.924,29.82,13.478,13.478,0,0,0,30.463,16.359Zm0-3.846a1.922,1.922,0,0,0,1.923-1.923V6.743a1.923,1.923,0,1,0-3.846,0v3.846A1.92,1.92,0,0,0,30.463,12.512Zm0,34.615a1.922,1.922,0,0,0-1.923,1.923V52.9a1.923,1.923,0,1,0,3.846,0V49.051A1.924,1.924,0,0,0,30.463,47.128ZM45.417,17.581l2.719-2.719a1.923,1.923,0,0,0-2.719-2.719L42.7,14.861a1.923,1.923,0,1,0,2.719,2.719ZM15.5,42.062l-2.719,2.719A1.923,1.923,0,0,0,15.5,47.5l2.719-2.719A1.923,1.923,0,0,0,15.5,42.062ZM13.155,29.82A1.924,1.924,0,0,0,11.232,27.9H7.386a1.923,1.923,0,1,0,0,3.846h3.846A1.922,1.922,0,0,0,13.155,29.82ZM53.54,27.9H49.694a1.923,1.923,0,0,0,0,3.846H53.54a1.923,1.923,0,0,0,0-3.846ZM15.5,17.581a1.923,1.923,0,1,0,2.719-2.719L15.5,12.142a1.923,1.923,0,0,0-2.719,2.719Zm29.92,24.477A1.923,1.923,0,1,0,42.7,44.776L45.422,47.5a1.923,1.923,0,0,0,2.719-2.719Z" transform="translate(808.537 133.18)" fill="#f06666"/>
  </g>
</svg>
