<svg xmlns="http://www.w3.org/2000/svg" width="50" height="50" viewBox="0 0 50 50">
  <g id="Group_16" data-name="Group 16" transform="translate(-745 -251)">
    <circle id="Ellipse_2" data-name="Ellipse 2" cx="25" cy="25" r="25" transform="translate(745 251)" fill="#f20505" opacity="0.19"/>
    <path id="Icon_open-sun" data-name="Icon open-sun" d="M18,0a2.228,2.228,0,0,0-2.25,2.25,2.25,2.25,0,0,0,4.5,0A2.228,2.228,0,0,0,18,0ZM6.75,4.5A2.25,2.25,0,1,0,9,6.75,2.228,2.228,0,0,0,6.75,4.5Zm22.5,0A2.25,2.25,0,1,0,31.5,6.75,2.228,2.228,0,0,0,29.25,4.5ZM18,9a9,9,0,1,0,9,9A9.026,9.026,0,0,0,18,9ZM2.25,15.75a2.25,2.25,0,0,0,0,4.5,2.25,2.25,0,0,0,0-4.5Zm31.5,0A2.25,2.25,0,1,0,36,18,2.228,2.228,0,0,0,33.75,15.75ZM6.75,27A2.25,2.25,0,1,0,9,29.25,2.228,2.228,0,0,0,6.75,27Zm22.5,0a2.25,2.25,0,1,0,2.25,2.25A2.228,2.228,0,0,0,29.25,27ZM18,31.5a2.25,2.25,0,1,0,2.25,2.25A2.228,2.228,0,0,0,18,31.5Z" transform="translate(752 258)" fill="#f20505" opacity="0.36"/>
  </g>
</svg>
