<svg xmlns="http://www.w3.org/2000/svg" width="200" height="80" viewBox="0 0 200 80">
  <g id="Group_15" data-name="Group 15" transform="translate(-423 -123)">
    <g id="Path_11" data-name="Path 11" transform="translate(423 123)" fill="#f8f8f8">
      <path d="M 160 79.5 L 40 79.5 C 34.66730117797852 79.5 29.49440002441406 78.45570373535156 24.62497520446777 76.39610290527344 C 19.92140007019043 74.40664672851562 15.69705009460449 71.55850219726562 12.06927490234375 67.93072509765625 C 8.441499710083008 64.30294799804688 5.593349933624268 60.0786018371582 3.603899955749512 55.37502670288086 C 1.544299960136414 50.50559997558594 0.5 45.33269882202148 0.5 40 C 0.5 34.66730117797852 1.544299960136414 29.49440002441406 3.603899955749512 24.62497520446777 C 5.593349933624268 19.92140007019043 8.441499710083008 15.69705009460449 12.06927490234375 12.06927490234375 C 15.69705009460449 8.441499710083008 19.92140007019043 5.593349933624268 24.62497520446777 3.603899955749512 C 29.49440002441406 1.544299960136414 34.66730117797852 0.5 40 0.5 L 160 0.5 C 165.3327026367188 0.5 170.5055999755859 1.544299960136414 175.3750305175781 3.603899955749512 C 180.0785980224609 5.593349933624268 184.3029479980469 8.441499710083008 187.9307250976562 12.06927490234375 C 191.5585021972656 15.69705009460449 194.4066467285156 19.92140007019043 196.3961029052734 24.62497520446777 C 198.4557037353516 29.49440002441406 199.5 34.66730117797852 199.5 40 C 199.5 45.33269882202148 198.4557037353516 50.50559997558594 196.3961029052734 55.37502670288086 C 194.4066467285156 60.0786018371582 191.5585021972656 64.30294799804688 187.9307250976562 67.93072509765625 C 184.3029479980469 71.55850219726562 180.0785980224609 74.40664672851562 175.3750305175781 76.39610290527344 C 170.5055999755859 78.45570373535156 165.3327026367188 79.5 160 79.5 Z" stroke="none"/>
      <path d="M 40 1 C 34.73457336425781 1 29.62721252441406 2.031028747558594 24.81973266601562 4.06439208984375 C 20.17576599121094 6.028633117675781 16.00483703613281 8.840812683105469 12.42283630371094 12.42284393310547 C 8.8408203125 16.00484085083008 6.02862548828125 20.17576217651367 4.06439208984375 24.81973648071289 C 2.031021118164062 29.6272087097168 1 34.73457717895508 1 40 C 1 45.26542282104492 2.031021118164062 50.37278747558594 4.06439208984375 55.18026351928711 C 6.02862548828125 59.82423400878906 8.8408203125 63.99515533447266 12.42283630371094 67.57715606689453 C 16.00483703613281 71.15918731689453 20.17576599121094 73.97136688232422 24.81973266601562 75.93560791015625 C 29.62721252441406 77.96897125244141 34.73457336425781 79 40 79 L 160 79 C 165.2654266357422 79 170.3727874755859 77.96897125244141 175.1802673339844 75.93560791015625 C 179.8242340087891 73.97136688232422 183.9951629638672 71.15918731689453 187.5771636962891 67.57715606689453 C 191.1591796875 63.99515533447266 193.9713745117188 59.82423400878906 195.9356079101562 55.18026351928711 C 197.9689788818359 50.37278747558594 199 45.26542282104492 199 40 C 199 34.73457717895508 197.9689788818359 29.6272087097168 195.9356079101562 24.81973648071289 C 193.9713745117188 20.17576217651367 191.1591796875 16.00484085083008 187.5771636962891 12.42284393310547 C 183.9951629638672 8.840812683105469 179.8242340087891 6.028633117675781 175.1802673339844 4.06439208984375 C 170.3727874755859 2.031028747558594 165.2654266357422 1 160 1 L 40 1 M 40 0 L 160 0 C 182.0914001464844 0 200 17.90860366821289 200 40 C 200 62.09139251708984 182.0914001464844 80 160 80 L 40 80 C 17.90859985351562 80 0 62.09139251708984 0 40 C 0 17.90860366821289 17.90859985351562 0 40 0 Z" stroke="none" fill="#131313"/>
    </g>
    <rect id="Rectangle_71" data-name="Rectangle 71" width="59" height="59" rx="29.5" transform="translate(551 134)" fill="#f06666"/>
    <path id="Icon_metro-moon" data-name="Icon metro-moon" d="M54.321,52.334A25.684,25.684,0,1,1,27.6,10.027a3.215,3.215,0,0,1,4.1,4.1A19.143,19.143,0,0,0,56.211,38.639a3.211,3.211,0,0,1,4.093,4.1A25.359,25.359,0,0,1,54.321,52.334ZM22.541,20.549a19.261,19.261,0,1,0,28.7,25.605A25.564,25.564,0,0,1,24.18,19.1a18.068,18.068,0,0,0-1.639,1.447Z" transform="translate(427.913 128.633)" fill="#f06666"/>
  </g>
</svg>
